{
  "accessors": [
    {
      "bufferView": 1,
      "componentType": 5126,
      "count": 237,
      "max": [
        0.18365609645843506,
        0.2541571855545044,
        0.08600234985351563
      ],
      "min": [
        -0.18153749406337738,
        -0.2724609971046448,
        -0.02579629048705101
      ],
      "type": "VEC3"
    },
    {
      "bufferView": 1,
      "byteOffset": 2844,
      "componentType": 5126,
      "count": 237,
      "max": [
        0.9676477909088135,
        0.5861614346504211,
        0.9677674174308777
      ],
      "min": [
        -0.9676485061645508,
        -0.5861678123474121,
        -0.9677677154541016
      ],
      "type": "VEC3"
    },
    {
      "bufferView": 0,
      "componentType": 5125,
      "count": 333,
      "type": "SCALAR"
    },
    {
      "bufferView": 1,
      "byteOffset": 5688,
      "componentType": 5126,
      "count": 68,
      "max": [
        0.18056009709835052,
        0.29727989435195923,
        0.040513038635253906
      ],
      "min": [
        -0.052795689553022385,
        -0.2724609971046448,
        -0.03399765118956566
      ],
      "type": "VEC3"
    },
    {
      "bufferView": 1,
      "byteOffset": 6504,
      "componentType": 5126,
      "count": 68,
      "max": [
        0.9178746938705444,
        0.37783294916152954,
        0.9077239036560059
      ],
      "min": [
        -0.9625705480575562,
        -0.2258346676826477,
        -1.0
      ],
      "type": "VEC3"
    },
    {
      "bufferView": 0,
      "byteOffset": 1332,
      "componentType": 5125,
      "count": 78,
      "type": "SCALAR"
    },
    {
      "bufferView": 1,
      "byteOffset": 7320,
      "componentType": 5126,
      "count": 194,
      "max": [
        0.22442859411239624,
        0.2641572058200836,
        0.08600246906280518
      ],
      "min": [
        -0.21975719928741455,
        -0.2724609971046448,
        -0.05203866958618164
      ],
      "type": "VEC3"
    },
    {
      "bufferView": 1,
      "byteOffset": 9648,
      "componentType": 5126,
      "count": 194,
      "max": [
        1.0,
        0.9899391531944275,
        1.0
      ],
      "min": [
        -1.0,
        -0.9899389743804932,
        -0.9883601069450378
      ],
      "type": "VEC3"
    },
    {
      "bufferView": 0,
      "byteOffset": 1644,
      "componentType": 5125,
      "count": 243,
      "type": "SCALAR"
    },
    {
      "bufferView": 1,
      "byteOffset": 11976,
      "componentType": 5126,
      "count": 723,
      "max": [
        0.21614669263362885,
        0.1461022049188614,
        0.116395503282547
      ],
      "min": [
        -0.211906298995018,
        -0.07859399914741516,
        -0.05203866958618164
      ],
      "type": "VEC3"
    },
    {
      "bufferView": 1,
      "byteOffset": 20652,
      "componentType": 5126,
      "count": 723,
      "max": [
        0.9993420839309692,
        1.0,
        0.9981681108474731
      ],
      "min": [
        -0.9994457364082336,
        -0.9998564720153809,
        -0.9988206624984741
      ],
      "type": "VEC3"
    },
    {
      "bufferView": 0,
      "byteOffset": 2616,
      "componentType": 5125,
      "count": 2670,
      "type": "SCALAR"
    },
    {
      "bufferView": 1,
      "byteOffset": 29328,
      "componentType": 5126,
      "count": 2112,
      "max": [
        0.2471507042646408,
        0.09731251001358032,
        0.09433925151824951
      ],
      "min": [
        -0.24802879989147186,
        -0.26574039459228516,
        -0.08989059925079346
      ],
      "type": "VEC3"
    },
    {
      "bufferView": 1,
      "byteOffset": 54672,
      "componentType": 5126,
      "count": 2112,
      "max": [
        0.9988389611244202,
        0.9990643858909607,
        0.9982286691665649
      ],
      "min": [
        -0.9988389611244202,
        -0.9990643858909607,
        -0.9982286691665649
      ],
      "type": "VEC3"
    },
    {
      "bufferView": 0,
      "byteOffset": 13296,
      "componentType": 5125,
      "count": 3456,
      "type": "SCALAR"
    },
    {
      "bufferView": 1,
      "byteOffset": 80016,
      "componentType": 5126,
      "count": 806,
      "max": [
        0.20419789850711823,
        0.0831688866019249,
        0.10743770003318787
      ],
      "min": [
        -0.19516390562057495,
        0.0025631790049374104,
        -0.08296585083007813
      ],
      "type": "VEC3"
    },
    {
      "bufferView": 1,
      "byteOffset": 89688,
      "componentType": 5126,
      "count": 806,
      "max": [
        0.9998174905776978,
        0.9841321110725403,
        0.9986182451248169
      ],
      "min": [
        -0.9998174905776978,
        -0.9997202157974243,
        -0.9878125786781311
      ],
      "type": "VEC3"
    },
    {
      "bufferView": 0,
      "byteOffset": 27120,
      "componentType": 5125,
      "count": 1206,
      "type": "SCALAR"
    }
  ],
  "asset": {
    "extras": {
      "author": "Aaron XR Dev (https://sketchfab.com/AaronXRdev)",
      "license": "CC-BY-4.0 (http://creativecommons.org/licenses/by/4.0/)",
      "source": "https://sketchfab.com/3d-models/hover-battler-sparrow-4f362d6d6b894f508a473bad83f62c18",
      "title": "Hover Battler: Sparrow"
    },
    "generator": "Sketchfab-12.68.0",
    "version": "2.0"
  },
  "bufferViews": [
    {
      "buffer": 0,
      "byteLength": 31944,
      "name": "floatBufferViews",
      "target": 34963
    },
    {
      "buffer": 0,
      "byteLength": 99360,
      "byteOffset": 31944,
      "byteStride": 12,
      "name": "floatBufferViews",
      "target": 34962
    }
  ],
  "buffers": [
    {
      "byteLength": 131304,
      "uri": "scene.bin"
    }
  ],
  "materials": [
    {
      "doubleSided": true,
      "name": "mat13",
      "pbrMetallicRoughness": {
        "baseColorFactor": [
          1.0,
          0.6,
          0.0,
          1.0
        ],
        "metallicFactor": 0.0
      }
    },
    {
      "doubleSided": true,
      "name": "mat15",
      "pbrMetallicRoughness": {
        "baseColorFactor": [
          0.81,
          0.85,
          0.86,
          1.0
        ],
        "metallicFactor": 0.0
      }
    },
    {
      "doubleSided": true,
      "name": "mat17",
      "pbrMetallicRoughness": {
        "baseColorFactor": [
          0.27,
          0.35,
          0.39,
          1.0
        ],
        "metallicFactor": 0.0
      }
    },
    {
      "doubleSided": true,
      "name": "mat23",
      "pbrMetallicRoughness": {
        "baseColorFactor": [
          0.1,
          0.1,
          0.1,
          1.0
        ],
        "roughnessFactor": 0.17244664634146342
      }
    },
    {
      "alphaMode": "BLEND",
      "doubleSided": true,
      "name": "mat24",
      "pbrMetallicRoughness": {
        "baseColorFactor": [
          0.92,
          0.95,
          0.94,
          0.21779725609756098
        ],
        "metallicFactor": 0.0,
        "roughnessFactor": 0.35804115853658525
      }
    },
    {
      "alphaMode": "BLEND",
      "doubleSided": true,
      "emissiveFactor": [
        0.8098323170731707,
        0.7282521831812393,
        0.19746778573785992
      ],
      "name": "mat25",
      "pbrMetallicRoughness": {
        "baseColorFactor": [
          0.92,
          0.95,
          0.94,
          0.5653582317073171
        ],
        "metallicFactor": 0.0,
        "roughnessFactor": 0.5838208549712183
      }
    }
  ],
  "meshes": [
    {
      "name": "Object_0",
      "primitives": [
        {
          "attributes": {
            "NORMAL": 1,
            "POSITION": 0
          },
          "indices": 2,
          "material": 0,
          "mode": 4
        }
      ]
    },
    {
      "name": "Object_1",
      "primitives": [
        {
          "attributes": {
            "NORMAL": 4,
            "POSITION": 3
          },
          "indices": 5,
          "material": 1,
          "mode": 4
        }
      ]
    },
    {
      "name": "Object_2",
      "primitives": [
        {
          "attributes": {
            "NORMAL": 7,
            "POSITION": 6
          },
          "indices": 8,
          "material": 2,
          "mode": 4
        }
      ]
    },
    {
      "name": "Object_3",
      "primitives": [
        {
          "attributes": {
            "NORMAL": 10,
            "POSITION": 9
          },
          "indices": 11,
          "material": 3,
          "mode": 4
        }
      ]
    },
    {
      "name": "Object_4",
      "primitives": [
        {
          "attributes": {
            "NORMAL": 13,
            "POSITION": 12
          },
          "indices": 14,
          "material": 4,
          "mode": 4
        }
      ]
    },
    {
      "name": "Object_5",
      "primitives": [
        {
          "attributes": {
            "NORMAL": 16,
            "POSITION": 15
          },
          "indices": 17,
          "material": 5,
          "mode": 4
        }
      ]
    }
  ],
  "nodes": [
    {
      "children": [
        1
      ],
      "matrix": [
        2.4684345722198486,
        0.0,
        0.0,
        0.0,
        0.0,
        5.48102579371845e-16,
        -2.4684345722198486,
        0.0,
        0.0,
        2.4684345722198486,
        5.48102579371845e-16,
        0.0,
        0.0,
        0.0,
        0.0,
        1.0
      ],
      "name": "Sketchfab_model"
    },
    {
      "children": [
        2,
        3,
        4,
        5,
        6,
        7
      ],
      "name": "model.obj.cleaner.materialmerger.gles"
    },
    {
      "mesh": 0,
      "name": "Object_2"
    },
    {
      "mesh": 1,
      "name": "Object_3"
    },
    {
      "mesh": 2,
      "name": "Object_4"
    },
    {
      "mesh": 3,
      "name": "Object_5"
    },
    {
      "mesh": 4,
      "name": "Object_6"
    },
    {
      "mesh": 5,
      "name": "Object_7"
    }
  ],
  "scene": 0,
  "scenes": [
    {
      "name": "Sketchfab_Scene",
      "nodes": [
        0
      ]
    }
  ]
}
